<svg width="46" height="46" viewBox="0 0 46 46" fill="none" xmlns="http://www.w3.org/2000/svg">
<path d="M41.9873 0H4.16682C3.16375 0 2.20177 0.402404 1.4925 1.11869C0.78323 1.83497 0.384766 2.80646 0.384766 3.81944V42.0139C0.384766 43.0269 0.78323 43.9984 1.4925 44.7146C2.20177 45.4309 3.16375 45.8333 4.16682 45.8333H41.9873C42.9904 45.8333 43.9524 45.4309 44.6616 44.7146C45.3709 43.9984 45.7694 43.0269 45.7694 42.0139V3.81944C45.7694 2.80646 45.3709 1.83497 44.6616 1.11869C43.9524 0.402404 42.9904 0 41.9873 0ZM35.2033 19.0972C34.4913 18.3887 33.5318 17.9915 32.5322 17.9915C31.5326 17.9915 30.5731 18.3887 29.8611 19.0972L19.295 29.7678L14.402 24.8264C13.69 24.1179 12.7305 23.7207 11.7309 23.7207C10.7313 23.7207 9.77186 24.1179 9.05984 24.8264L4.16682 29.7678V3.81944H41.9873V25.9483L35.2033 19.0972ZM19.295 14.3229C19.295 14.8895 19.1287 15.4433 18.817 15.9144C18.5053 16.3855 18.0623 16.7526 17.544 16.9694C17.0257 17.1863 16.4553 17.243 15.9051 17.1325C15.3549 17.0219 14.8494 16.7491 14.4527 16.3485C14.0561 15.9479 13.7859 15.4374 13.6764 14.8818C13.567 14.3261 13.6232 13.7501 13.8379 13.2267C14.0526 12.7033 14.4161 12.2559 14.8826 11.9411C15.3491 11.6263 15.8975 11.4583 16.4585 11.4583C17.2108 11.4583 17.9323 11.7601 18.4642 12.2973C18.9962 12.8346 19.295 13.5632 19.295 14.3229Z" fill="white"/>
</svg>
