<svg width="252" height="267" viewBox="0 0 252 267" fill="none" xmlns="http://www.w3.org/2000/svg">
<path d="M125.429 117.047C143.296 108.622 159.519 96.2515 173.16 80.6515C199.891 50.2366 217.186 1.9375 217.186 1.9375M173.295 183.654C168.801 204.164 165.526 218.299 157.756 228.073C139.827 250.61 100.846 263.25 75.9936 220.56C59.9551 193.004 68.4487 156.514 91.4038 136.828C94.3708 134.034 97.5947 131.613 101.019 129.607M251 52.0309C233.124 67.1598 216.634 84.3017 201.782 103.196C189.987 117.857 185.071 132.846 180.038 154.107M56.8333 207.526C37.6336 218.409 18.9925 230.524 1 243.813" stroke="white" stroke-width="2" stroke-linecap="round" stroke-linejoin="round"/>
<path d="M224.077 95.0858C233.647 118.039 231.115 138.921 219.077 149.716C192.603 173.428 160.327 170.029 117.82 181.56C104.987 185.128 92.4116 189.807 80.2051 195.557M201 59.5288C205.603 63.117 209.621 67.592 212.872 72.7524" stroke="white" stroke-width="2" stroke-linecap="round" stroke-linejoin="round"/>
<path d="M123.724 165.463C109.314 131.183 106.282 95.4944 133.852 63.8395C139.734 56.4664 147.314 51.1148 155.731 48.3909C164.149 45.6671 173.069 45.6799 181.481 48.4279M194.545 266C185.461 256.365 156.468 229.597 135.494 191.947" stroke="white" stroke-width="2" stroke-linecap="round" stroke-linejoin="round"/>
</svg>
