<svg width="252" height="262" viewBox="0 0 252 262" fill="none" xmlns="http://www.w3.org/2000/svg">
<path d="M125.429 114.858C143.296 106.591 159.519 94.4544 173.16 79.1488C199.891 49.3078 217.186 1.91992 217.186 1.91992M173.295 180.208C168.801 200.331 165.526 214.199 157.756 223.788C139.827 245.901 100.846 258.302 75.9936 216.418C59.9551 189.382 68.4487 153.58 91.4038 134.265C94.3708 131.524 97.5947 129.148 101.019 127.181M251 51.0682C233.124 65.9116 216.634 82.7301 201.782 101.268C189.987 115.652 185.071 130.358 180.038 151.218M56.8333 203.63C37.6336 214.308 18.9925 226.194 1 239.231" stroke="white" stroke-width="2" stroke-linecap="round" stroke-linejoin="round"/>
<path d="M224.077 93.3107C233.647 115.831 231.115 136.319 219.077 146.91C192.603 170.175 160.327 166.84 117.82 178.154C104.987 181.654 92.4116 186.245 80.2051 191.886M201 58.4246C205.603 61.945 209.621 66.3356 212.872 71.3986" stroke="white" stroke-width="2" stroke-linecap="round" stroke-linejoin="round"/>
<path d="M123.724 162.36C109.314 128.726 106.282 93.7115 133.852 62.654C139.734 55.4199 147.314 50.1693 155.731 47.4968C164.149 44.8244 173.069 44.837 181.481 47.5331M194.545 261C185.461 251.547 156.468 225.284 135.494 188.344" stroke="white" stroke-width="2" stroke-linecap="round" stroke-linejoin="round"/>
</svg>
