<svg width="46" height="46" viewBox="0 0 46 46" fill="none" xmlns="http://www.w3.org/2000/svg">
<path d="M27.3568 16.901V12.0312C28.4914 11.3628 29.6521 10.8615 30.839 10.5273C32.0245 10.1931 33.2705 10.026 34.577 10.026C35.471 10.026 36.3477 10.1215 37.2073 10.3125C38.0668 10.5035 38.9092 10.7422 39.7344 11.0286V15.612C38.9092 15.1823 38.0758 14.8605 37.2341 14.6466C36.391 14.4308 35.5054 14.3229 34.577 14.3229C33.2705 14.3229 32.0156 14.5502 30.8122 15.0047C29.6088 15.4573 28.457 16.0894 27.3568 16.901ZM27.3568 32.6562V27.7865C28.4914 27.1181 29.6521 26.6168 30.839 26.2826C32.0245 25.9484 33.2705 25.7812 34.577 25.7812C35.471 25.7812 36.3477 25.8767 37.2073 26.0677C38.0668 26.2587 38.9092 26.4974 39.7344 26.7839V31.3672C38.9092 30.9375 38.0758 30.6157 37.2341 30.4018C36.391 30.186 35.5054 30.0781 34.577 30.0781C33.2705 30.0781 32.0156 30.293 30.8122 30.7227C29.6088 31.1523 28.457 31.7969 27.3568 32.6562ZM27.3568 24.7786V19.9089C28.4914 19.2404 29.6521 18.7391 30.839 18.4049C32.0245 18.0707 33.2705 17.9036 34.577 17.9036C35.471 17.9036 36.3477 17.9991 37.2073 18.1901C38.0668 18.3811 38.9092 18.6198 39.7344 18.9062V23.4896C38.9092 23.0599 38.0758 22.7381 37.2341 22.5242C36.391 22.3084 35.5054 22.2005 34.577 22.2005C33.2705 22.2005 32.0156 22.4278 30.8122 22.8823C29.6088 23.3349 28.457 23.967 27.3568 24.7786ZM11.8847 34.375C13.5007 34.375 15.074 34.6252 16.6047 35.1255C18.1341 35.6278 19.6551 36.3802 21.1679 37.3828V9.16667C19.7583 8.02083 18.2626 7.16146 16.6811 6.58854C15.0995 6.01563 13.5007 5.72917 11.8847 5.72917C10.647 5.72917 9.41814 5.89627 8.19826 6.23047C6.977 6.56467 5.79906 7.06597 4.66445 7.73437V36.0938C5.86783 35.5208 7.06296 35.0911 8.24983 34.8047C9.43533 34.5182 10.647 34.375 11.8847 34.375ZM25.2938 37.3828C26.8066 36.3802 28.3284 35.6278 29.8591 35.1255C31.3884 34.6252 32.9611 34.375 34.577 34.375C35.8148 34.375 37.0271 34.5182 38.214 34.8047C39.3995 35.0911 40.5939 35.5208 41.7973 36.0938V7.73437C40.6627 7.06597 39.4855 6.56467 38.2656 6.23047C37.0443 5.89627 35.8148 5.72917 34.577 5.72917C32.9611 5.72917 31.3623 6.01563 29.7807 6.58854C28.1991 7.16146 26.7035 8.02083 25.2938 9.16667V37.3828ZM23.2309 45.8333C21.5805 44.0191 19.7927 42.6107 17.8672 41.6081C15.9418 40.6055 13.9477 40.1042 11.8847 40.1042C10.4407 40.1042 9.02275 40.3668 7.63095 40.8919C6.23778 41.4171 4.90512 42.1571 3.63298 43.112C2.91095 43.6371 2.21505 43.6133 1.54529 43.0404C0.874145 42.4674 0.538574 41.6319 0.538574 40.5339V6.01562C0.538574 5.49045 0.633469 4.98915 0.82326 4.51172C1.01167 4.03429 1.29498 3.67621 1.67319 3.4375C3.25477 2.29167 4.90512 1.43229 6.62424 0.859376C8.34335 0.286459 10.0968 0 11.8847 0C13.8789 0 15.8304 0.358073 17.7393 1.07422C19.6469 1.79036 21.4774 2.86458 23.2309 4.29688C24.9844 2.86458 26.8156 1.79036 28.7245 1.07422C30.632 0.358073 32.5829 0 34.577 0C36.3649 0 38.1184 0.286459 39.8375 0.859376C41.5566 1.43229 43.207 2.29167 44.7886 3.4375C45.1668 3.67621 45.4508 4.03429 45.6406 4.51172C45.829 4.98915 45.9232 5.49045 45.9232 6.01562V40.5339C45.9232 41.6319 45.5883 42.4674 44.9185 43.0404C44.2474 43.6133 43.5508 43.6371 42.8288 43.112C41.5566 42.1571 40.224 41.4171 38.8308 40.8919C37.439 40.3668 36.0211 40.1042 34.577 40.1042C32.5141 40.1042 30.5199 40.6055 28.5945 41.6081C26.6691 42.6107 24.8812 44.0191 23.2309 45.8333Z" fill="white"/>
</svg>
