<svg width="46" height="55" viewBox="0 0 46 55" fill="none" xmlns="http://www.w3.org/2000/svg">
<path d="M36.6872 20.6224C35.2983 18.2968 32.7605 16.9684 30.1018 17.3631V7.94922C30.1018 3.56598 26.7778 0 22.6922 0C18.6066 0 15.2828 3.56598 15.2828 7.94922L16.2088 18.0469L14.3165 9.57666C12.823 5.46165 8.49445 3.44932 4.68123 5.07117C0.884934 6.68572 -0.969553 11.2753 0.50737 15.3452L6.15583 30.9135C3.06025 33.5944 1.69902 37.1235 3.65025 40.8198L9.20713 51.347C10.3964 53.6003 12.6358 55 15.0514 55H35.89C39.0045 55 41.7209 52.6969 42.4298 49.4359L45.2082 36.6528C45.3246 36.1171 45.3833 35.5693 45.3834 35.0196L45.3846 27.5C45.3846 22.6707 41.0019 19.1917 36.6872 20.6224ZM40.5207 35.0195C40.5207 35.1794 40.5035 35.3393 40.4698 35.4947L37.6913 48.278C37.4909 49.1999 36.7502 49.8438 35.8899 49.8438H15.0514C14.3943 49.8438 13.7808 49.4548 13.4503 48.8287L7.89331 38.3014C7.43166 37.4269 7.62799 36.296 8.34999 35.6708L11.0495 33.3329C11.3139 33.1039 11.5034 32.7923 11.5909 32.4424C11.6784 32.0925 11.6595 31.7222 11.5369 31.3844L5.04431 13.4934C3.77121 9.98551 8.54713 8.03913 9.77697 11.4285L15.8334 28.1172C15.951 28.4414 16.1586 28.7202 16.4286 28.9169C16.6987 29.1135 17.0186 29.2188 17.3462 29.2188H18.5245C19.4198 29.2188 20.1454 28.4493 20.1454 27.5V7.94922C20.1454 4.25659 25.2391 4.25068 25.2391 7.94922V27.5C25.2391 28.4493 25.9648 29.2188 26.86 29.2188H27.5546C28.4498 29.2188 29.1754 28.4493 29.1754 27.5V24.4922C29.1754 21.7935 32.8798 21.7896 32.8798 24.4922V27.5C32.8798 28.4493 33.6055 29.2188 34.5007 29.2188H35.1953C36.0905 29.2188 36.8161 28.4493 36.8161 27.5C36.8161 24.8016 40.5206 24.7973 40.5206 27.5V35.0195H40.5207Z" fill="white"/>
</svg>
