<svg width="37" height="37" viewBox="0 0 37 37" fill="none" xmlns="http://www.w3.org/2000/svg">
<path d="M2.70948 36.6667C2.13797 36.6667 1.65924 36.3733 1.27331 35.7867C0.886024 35.202 0.692383 34.4768 0.692383 33.6111C0.692383 32.7454 0.886024 32.0202 1.27331 31.4356C1.65924 30.8489 2.13797 30.5556 2.70948 30.5556H34.983C35.5545 30.5556 36.0332 30.8489 36.4192 31.4356C36.8064 32.0202 37.0001 32.7454 37.0001 33.6111C37.0001 34.4768 36.8064 35.202 36.4192 35.7867C36.0332 36.3733 35.5545 36.6667 34.983 36.6667H2.70948ZM2.70948 21.3889C2.13797 21.3889 1.65924 21.0956 1.27331 20.5089C0.886024 19.9243 0.692383 19.1991 0.692383 18.3333C0.692383 17.4676 0.886024 16.7414 1.27331 16.1547C1.65924 15.5701 2.13797 15.2778 2.70948 15.2778H34.983C35.5545 15.2778 36.0332 15.5701 36.4192 16.1547C36.8064 16.7414 37.0001 17.4676 37.0001 18.3333C37.0001 19.1991 36.8064 19.9243 36.4192 20.5089C36.0332 21.0956 35.5545 21.3889 34.983 21.3889H2.70948ZM2.70948 6.11111C2.13797 6.11111 1.65924 5.8188 1.27331 5.23417C0.886024 4.6475 0.692383 3.9213 0.692383 3.05556C0.692383 2.18981 0.886024 1.46361 1.27331 0.876945C1.65924 0.292315 2.13797 0 2.70948 0H34.983C35.5545 0 36.0332 0.292315 36.4192 0.876945C36.8064 1.46361 37.0001 2.18981 37.0001 3.05556C37.0001 3.9213 36.8064 4.6475 36.4192 5.23417C36.0332 5.8188 35.5545 6.11111 34.983 6.11111H2.70948Z" fill="white"/>
</svg>
